<mxfile host="app.diagrams.net" modified="2021-08-07T09:36:45.765Z" agent="5.0 (Windows NT 10.0; Win64; x64) AppleWebKit/537.36 (KHTML, like Gecko) Chrome/92.0.4515.131 Safari/537.36" etag="PDZvKgrz36fKrOAINAqe" version="14.9.5" type="github">
  <diagram id="EIMj0PShWdxadWjlxSMA" name="Page-1">
    <mxGraphModel dx="1422" dy="762" grid="1" gridSize="10" guides="1" tooltips="1" connect="1" arrows="1" fold="1" page="1" pageScale="1" pageWidth="827" pageHeight="1169" math="0" shadow="0">
      <root>
        <mxCell id="0" />
        <mxCell id="1" parent="0" />
        <mxCell id="JCme8O76sqbVSwjC6icS-1" value="Virtual" style="shape=ext;double=1;rounded=0;whiteSpace=wrap;html=1;fillColor=#CCFFFF;" vertex="1" parent="1">
          <mxGeometry x="90" y="320" width="50" height="100" as="geometry" />
        </mxCell>
        <mxCell id="JCme8O76sqbVSwjC6icS-2" value="From&lt;br&gt;S0" style="shape=ext;double=1;rounded=0;whiteSpace=wrap;html=1;fillColor=#d5e8d4;strokeColor=#82b366;" vertex="1" parent="1">
          <mxGeometry x="140" y="320" width="60" height="100" as="geometry" />
        </mxCell>
        <mxCell id="JCme8O76sqbVSwjC6icS-3" value="To&lt;br&gt;S1" style="shape=ext;double=1;rounded=0;whiteSpace=wrap;html=1;fillColor=#dae8fc;strokeColor=#6c8ebf;" vertex="1" parent="1">
          <mxGeometry x="200" y="320" width="60" height="100" as="geometry" />
        </mxCell>
        <mxCell id="JCme8O76sqbVSwjC6icS-4" value="Eden" style="shape=ext;double=1;rounded=0;whiteSpace=wrap;html=1;fillColor=#fff2cc;strokeColor=#d6b656;" vertex="1" parent="1">
          <mxGeometry x="260" y="320" width="100" height="100" as="geometry" />
        </mxCell>
        <mxCell id="JCme8O76sqbVSwjC6icS-6" value="Tenured" style="shape=ext;double=1;rounded=0;whiteSpace=wrap;html=1;fillColor=#f8cecc;strokeColor=#b85450;" vertex="1" parent="1">
          <mxGeometry x="360" y="320" width="90" height="100" as="geometry" />
        </mxCell>
        <mxCell id="JCme8O76sqbVSwjC6icS-7" value="Virtual" style="shape=ext;double=1;rounded=0;whiteSpace=wrap;html=1;fillColor=#e1d5e7;strokeColor=#9673a6;" vertex="1" parent="1">
          <mxGeometry x="450" y="320" width="50" height="100" as="geometry" />
        </mxCell>
        <mxCell id="JCme8O76sqbVSwjC6icS-12" value="" style="shape=crossbar;whiteSpace=wrap;html=1;rounded=1;" vertex="1" parent="1">
          <mxGeometry x="140" y="280" width="220" height="20" as="geometry" />
        </mxCell>
        <mxCell id="JCme8O76sqbVSwjC6icS-18" value="Meta" style="shape=ext;double=1;rounded=0;whiteSpace=wrap;html=1;fillColor=#d5e8d4;strokeColor=#82b366;gradientColor=#97d077;" vertex="1" parent="1">
          <mxGeometry x="500" y="320" width="130" height="100" as="geometry" />
        </mxCell>
        <mxCell id="JCme8O76sqbVSwjC6icS-21" value="" style="shape=curlyBracket;whiteSpace=wrap;html=1;rounded=1;fillColor=#CCFFFF;direction=north;" vertex="1" parent="1">
          <mxGeometry x="90" y="440" width="270" height="20" as="geometry" />
        </mxCell>
        <mxCell id="JCme8O76sqbVSwjC6icS-23" value="&lt;span&gt;年轻代&lt;/span&gt;" style="text;html=1;align=center;verticalAlign=middle;resizable=0;points=[];autosize=1;strokeColor=none;" vertex="1" parent="1">
          <mxGeometry x="205" y="470" width="50" height="20" as="geometry" />
        </mxCell>
        <mxCell id="JCme8O76sqbVSwjC6icS-24" value="" style="shape=curlyBracket;whiteSpace=wrap;html=1;rounded=1;flipH=1;fillColor=#CCFFFF;direction=north;" vertex="1" parent="1">
          <mxGeometry x="360" y="440" width="140" height="20" as="geometry" />
        </mxCell>
        <mxCell id="JCme8O76sqbVSwjC6icS-26" value="老年代" style="text;html=1;align=center;verticalAlign=middle;resizable=0;points=[];autosize=1;strokeColor=none;" vertex="1" parent="1">
          <mxGeometry x="405" y="470" width="50" height="20" as="geometry" />
        </mxCell>
        <mxCell id="JCme8O76sqbVSwjC6icS-27" value="" style="shape=curlyBracket;whiteSpace=wrap;html=1;rounded=1;flipH=1;fillColor=#CCFFFF;direction=north;" vertex="1" parent="1">
          <mxGeometry x="500" y="440" width="150" height="20" as="geometry" />
        </mxCell>
        <mxCell id="JCme8O76sqbVSwjC6icS-28" value="持久代" style="text;html=1;align=center;verticalAlign=middle;resizable=0;points=[];autosize=1;strokeColor=none;" vertex="1" parent="1">
          <mxGeometry x="530" y="470" width="50" height="20" as="geometry" />
        </mxCell>
        <mxCell id="JCme8O76sqbVSwjC6icS-29" value="XX:NewSize" style="text;html=1;strokeColor=none;fillColor=none;align=center;verticalAlign=middle;whiteSpace=wrap;rounded=0;" vertex="1" parent="1">
          <mxGeometry x="205" y="260" width="40" height="20" as="geometry" />
        </mxCell>
        <mxCell id="JCme8O76sqbVSwjC6icS-30" value="" style="shape=crossbar;whiteSpace=wrap;html=1;rounded=1;" vertex="1" parent="1">
          <mxGeometry x="90" y="236" width="270" height="30" as="geometry" />
        </mxCell>
        <mxCell id="JCme8O76sqbVSwjC6icS-31" value="XX:MaxNewSize" style="text;html=1;strokeColor=none;fillColor=none;align=center;verticalAlign=middle;whiteSpace=wrap;rounded=0;" vertex="1" parent="1">
          <mxGeometry x="210" y="216" width="40" height="20" as="geometry" />
        </mxCell>
        <mxCell id="JCme8O76sqbVSwjC6icS-32" value="" style="shape=crossbar;whiteSpace=wrap;html=1;rounded=1;fillColor=#CCFFFF;" vertex="1" parent="1">
          <mxGeometry x="140" y="193" width="360" height="20" as="geometry" />
        </mxCell>
        <mxCell id="JCme8O76sqbVSwjC6icS-33" value="Xms" style="text;html=1;strokeColor=none;fillColor=none;align=center;verticalAlign=middle;whiteSpace=wrap;rounded=0;" vertex="1" parent="1">
          <mxGeometry x="300" y="170" width="40" height="20" as="geometry" />
        </mxCell>
        <mxCell id="JCme8O76sqbVSwjC6icS-35" value="" style="shape=crossbar;whiteSpace=wrap;html=1;rounded=1;fillColor=#CCFFFF;" vertex="1" parent="1">
          <mxGeometry x="90" y="157" width="410" height="30" as="geometry" />
        </mxCell>
        <mxCell id="JCme8O76sqbVSwjC6icS-36" value="Xmx" style="text;html=1;strokeColor=none;fillColor=none;align=center;verticalAlign=middle;whiteSpace=wrap;rounded=0;" vertex="1" parent="1">
          <mxGeometry x="270" y="131" width="40" height="20" as="geometry" />
        </mxCell>
        <mxCell id="JCme8O76sqbVSwjC6icS-37" value="Virtual" style="shape=ext;double=1;rounded=0;whiteSpace=wrap;html=1;fillColor=#fff2cc;gradientColor=#ffd966;strokeColor=#d6b656;" vertex="1" parent="1">
          <mxGeometry x="630" y="320" width="50" height="100" as="geometry" />
        </mxCell>
        <mxCell id="JCme8O76sqbVSwjC6icS-38" value="" style="shape=crossbar;whiteSpace=wrap;html=1;rounded=1;fillColor=#CCFFFF;" vertex="1" parent="1">
          <mxGeometry x="500" y="266" width="130" height="44" as="geometry" />
        </mxCell>
        <mxCell id="JCme8O76sqbVSwjC6icS-39" value="XX:MetaspaceSize" style="text;html=1;align=center;verticalAlign=middle;resizable=0;points=[];autosize=1;strokeColor=none;" vertex="1" parent="1">
          <mxGeometry x="500" y="260" width="120" height="20" as="geometry" />
        </mxCell>
        <mxCell id="JCme8O76sqbVSwjC6icS-40" value="" style="shape=crossbar;whiteSpace=wrap;html=1;rounded=1;fillColor=#CCFFFF;" vertex="1" parent="1">
          <mxGeometry x="500" y="230" width="180" height="20" as="geometry" />
        </mxCell>
        <mxCell id="JCme8O76sqbVSwjC6icS-43" value="XX:MaxMetaspaceSize" style="text;html=1;strokeColor=none;fillColor=none;align=center;verticalAlign=middle;whiteSpace=wrap;rounded=0;" vertex="1" parent="1">
          <mxGeometry x="570" y="210" width="40" height="20" as="geometry" />
        </mxCell>
      </root>
    </mxGraphModel>
  </diagram>
</mxfile>
